<svg xmlns="http://www.w3.org/2000/svg" id="Layer_1" data-name="Layer 1" viewBox="0 0 1077.01 574">
	<defs>
		<style>
			.cls-1{fill:#f2f2f2;}
		</style>
	</defs>
	<title>
		Untitled-1
	</title>
	<path class="cls-1" d="M70.19,489.16a45,45,0,0,1-19.53-14.83l-.15-.19c-7.14-9.71.2-23.45,12.25-23.45h1.29c7.55,0,14.33,3.92,18.91,9.92a14.13,14.13,0,0,0,1.86,2q4.61,4.11,12,4.11,7.62,0,12-3.51a11.7,11.7,0,0,0,4.41-9.71,11.49,11.49,0,0,0-3.51-8.62,28.27,28.27,0,0,0-8.61-5.61c-3.41-1.47-11.23,6.89-17.51,5-9.08-2.81-13.52-15.64-19.26-18.44a41.05,41.05,0,0,1-14.82-12.43q-6.23-8.21-6.22-21.43,0-19.64,14.23-30.76t37.07-11.12q23.24,0,37.46,11.12a39.59,39.59,0,0,1,6.92,6.89,14.93,14.93,0,0,1-11.81,24.07H126c-7.18,0-14.3-2.89-18.67-8.59a14.64,14.64,0,0,0-2-2.13q-4.62-3.92-11.83-3.91-6.21,0-10,3.31t-3.81,9.51c0,4.54,2.13,8.09,6.41,10.62s16.59-3.73,25.67-.79,10.83,15,16.51,17.82a42.26,42.26,0,0,1,14.72,12.22q6.21,8,6.22,20.64A40.43,40.43,0,0,1,143,472.73a42.7,42.7,0,0,1-17.73,15.63q-11.62,5.82-27.45,5.81A72.37,72.37,0,0,1,70.19,489.16Z" transform="translate(-1.49 -284)" />
	<path class="cls-1" d="M346.29,352.11V526.44H312V434.86h-53.3v23.65a34.26,34.26,0,0,1-34.26,34.26h0V318.06h34.26v89.15H312V386.38a34.26,34.26,0,0,1,34.26-34.27Z" transform="translate(-1.49 -284)" />
	<path class="cls-1" d="M830.56,336.08,793.89,506.79H752.42L730,414.23l-23.24,92.56H665.26L629.6,336.08l13,22.05a19.25,19.25,0,0,0,11.1,8.9,23.07,23.07,0,0,1,16.24,17.69l16.56,83.8,25-102.38h37.66l24,102.38L790,384.68A23.09,23.09,0,0,1,806.24,367a19.46,19.46,0,0,0,11.14-8.88Z" transform="translate(-1.49 -284)" />
	<path class="cls-1" d="M554.16,385a67.62,67.62,0,0,0-26-25.64,76.32,76.32,0,0,0-72.73,0A69,69,0,0,0,429.14,385q-9.72,16.44-9.72,37.07t9.72,37.17A68.77,68.77,0,0,0,455.38,485,76.13,76.13,0,0,0,528,485a68.28,68.28,0,0,0,26-25.74q9.62-16.53,9.62-37.17T554.16,385ZM450.3,387.19a11,11,0,1,1,11,11A11,11,0,0,1,450.3,387.19Zm68.4,64.5q-10.13,11.24-27,11.22-17,0-27.15-11.12T454.48,422c0-12.55,22.28-3.6,29-11s-3.11-29.92,8.25-29.92,20.2,3.7,27,11.12,10.12,17.33,10.12,29.75S525.44,444.21,518.7,451.69Z" transform="translate(-1.49 -284)" />
	<path class="cls-1" d="M873.07,318.06V284H1.49v34.06H171.8V526.44H1.49V560.5H873.07V526.44H602.58V318.06ZM45.57,306.63A1.41,1.41,0,0,1,44.16,308H31a1.42,1.42,0,0,1-1.42-1.41v-13.2A1.43,1.43,0,0,1,31,292h13.2a1.42,1.42,0,0,1,1.41,1.42Zm40.07,0A1.41,1.41,0,0,1,84.23,308H71a1.41,1.41,0,0,1-1.41-1.41v-13.2A1.42,1.42,0,0,1,71,292h13.2a1.42,1.42,0,0,1,1.41,1.42Zm40.08,0A1.42,1.42,0,0,1,124.3,308H111.1a1.41,1.41,0,0,1-1.41-1.41v-13.2A1.42,1.42,0,0,1,111.1,292h13.2a1.43,1.43,0,0,1,1.42,1.42Zm40.07,0a1.41,1.41,0,0,1-1.42,1.41H151.18a1.41,1.41,0,0,1-1.42-1.41v-13.2a1.42,1.42,0,0,1,1.42-1.42h13.19a1.42,1.42,0,0,1,1.42,1.42ZM45.57,551.07a1.41,1.41,0,0,1-1.41,1.41H31a1.42,1.42,0,0,1-1.42-1.41v-13.2A1.42,1.42,0,0,1,31,536.46h13.2a1.41,1.41,0,0,1,1.41,1.41Zm40.07,0a1.41,1.41,0,0,1-1.41,1.41H71a1.41,1.41,0,0,1-1.41-1.41v-13.2A1.41,1.41,0,0,1,71,536.46h13.2a1.41,1.41,0,0,1,1.41,1.41Zm40.08,0a1.42,1.42,0,0,1-1.42,1.41H111.1a1.41,1.41,0,0,1-1.41-1.41v-13.2a1.41,1.41,0,0,1,1.41-1.41h13.2a1.42,1.42,0,0,1,1.42,1.41Zm40.07,0a1.41,1.41,0,0,1-1.42,1.41H151.18a1.41,1.41,0,0,1-1.42-1.41v-13.2a1.41,1.41,0,0,1,1.42-1.41h13.19a1.41,1.41,0,0,1,1.42,1.41ZM831,293.43a1.42,1.42,0,0,1,1.42-1.42H845.6a1.42,1.42,0,0,1,1.42,1.42v13.2A1.41,1.41,0,0,1,845.6,308H832.41a1.41,1.41,0,0,1-1.42-1.41Zm-40.07,0a1.42,1.42,0,0,1,1.41-1.42h13.2a1.43,1.43,0,0,1,1.42,1.42v13.2a1.42,1.42,0,0,1-1.42,1.41h-13.2a1.41,1.41,0,0,1-1.41-1.41Zm-40.07,0a1.42,1.42,0,0,1,1.41-1.42h13.2a1.43,1.43,0,0,1,1.42,1.42v13.2a1.42,1.42,0,0,1-1.42,1.41h-13.2a1.41,1.41,0,0,1-1.41-1.41Zm-40.08,0a1.43,1.43,0,0,1,1.42-1.42h13.2a1.42,1.42,0,0,1,1.41,1.42v13.2a1.41,1.41,0,0,1-1.41,1.41h-13.2a1.42,1.42,0,0,1-1.42-1.41Zm-40.07,0a1.42,1.42,0,0,1,1.42-1.42h13.2a1.42,1.42,0,0,1,1.41,1.42v13.2a1.41,1.41,0,0,1-1.41,1.41h-13.2a1.41,1.41,0,0,1-1.42-1.41Zm-40.07,0A1.42,1.42,0,0,1,632,292h13.2a1.43,1.43,0,0,1,1.42,1.42v13.2a1.42,1.42,0,0,1-1.42,1.41H632a1.41,1.41,0,0,1-1.41-1.41Zm-40.07,0A1.42,1.42,0,0,1,592,292h13.2a1.43,1.43,0,0,1,1.42,1.42v13.2a1.42,1.42,0,0,1-1.42,1.41H592a1.41,1.41,0,0,1-1.41-1.41Zm-40.08,0A1.43,1.43,0,0,1,551.9,292h13.2a1.42,1.42,0,0,1,1.41,1.42v13.2A1.41,1.41,0,0,1,565.1,308H551.9a1.42,1.42,0,0,1-1.42-1.41Zm-40.07,0a1.43,1.43,0,0,1,1.42-1.42H525a1.42,1.42,0,0,1,1.41,1.42v13.2A1.41,1.41,0,0,1,525,308h-13.2a1.42,1.42,0,0,1-1.42-1.41Zm-40.07,0a1.42,1.42,0,0,1,1.41-1.42H485a1.43,1.43,0,0,1,1.42,1.42v13.2A1.42,1.42,0,0,1,485,308h-13.2a1.41,1.41,0,0,1-1.41-1.41Zm-40.07,0a1.42,1.42,0,0,1,1.41-1.42h13.2a1.43,1.43,0,0,1,1.42,1.42v13.2a1.42,1.42,0,0,1-1.42,1.41h-13.2a1.41,1.41,0,0,1-1.41-1.41Zm-40.08,0a1.43,1.43,0,0,1,1.42-1.42h13.2a1.42,1.42,0,0,1,1.41,1.42v13.2a1.41,1.41,0,0,1-1.41,1.41h-13.2a1.42,1.42,0,0,1-1.42-1.41Zm-40.07,0a1.43,1.43,0,0,1,1.42-1.42h13.2a1.42,1.42,0,0,1,1.41,1.42v13.2a1.41,1.41,0,0,1-1.41,1.41h-13.2a1.42,1.42,0,0,1-1.42-1.41Zm-40.07,0a1.42,1.42,0,0,1,1.41-1.42h13.2a1.42,1.42,0,0,1,1.42,1.42v13.2a1.41,1.41,0,0,1-1.42,1.41h-13.2a1.41,1.41,0,0,1-1.41-1.41Zm-40.07,0a1.42,1.42,0,0,1,1.41-1.42h13.2a1.43,1.43,0,0,1,1.42,1.42v13.2a1.42,1.42,0,0,1-1.42,1.41h-13.2a1.41,1.41,0,0,1-1.41-1.41Zm-40.07,0a1.42,1.42,0,0,1,1.41-1.42h13.2a1.42,1.42,0,0,1,1.41,1.42v13.2a1.41,1.41,0,0,1-1.41,1.41h-13.2a1.41,1.41,0,0,1-1.41-1.41Zm-40.08,0a1.43,1.43,0,0,1,1.42-1.42h13.2a1.42,1.42,0,0,1,1.41,1.42v13.2a1.41,1.41,0,0,1-1.41,1.41h-13.2a1.42,1.42,0,0,1-1.42-1.41Zm16,257.64a1.41,1.41,0,0,1-1.41,1.41h-13.2a1.42,1.42,0,0,1-1.42-1.41v-13.2a1.42,1.42,0,0,1,1.42-1.41h13.2a1.41,1.41,0,0,1,1.41,1.41Zm40.07,0a1.41,1.41,0,0,1-1.41,1.41h-13.2a1.41,1.41,0,0,1-1.41-1.41v-13.2a1.41,1.41,0,0,1,1.41-1.41h13.2a1.41,1.41,0,0,1,1.41,1.41Zm40.08,0a1.42,1.42,0,0,1-1.42,1.41h-13.2a1.41,1.41,0,0,1-1.41-1.41v-13.2a1.41,1.41,0,0,1,1.41-1.41h13.2a1.42,1.42,0,0,1,1.42,1.41Zm40.07,0a1.41,1.41,0,0,1-1.42,1.41h-13.2a1.41,1.41,0,0,1-1.41-1.41v-13.2a1.41,1.41,0,0,1,1.41-1.41h13.2a1.41,1.41,0,0,1,1.42,1.41Zm40.07,0a1.41,1.41,0,0,1-1.41,1.41h-13.2a1.42,1.42,0,0,1-1.42-1.41v-13.2a1.42,1.42,0,0,1,1.42-1.41h13.2a1.41,1.41,0,0,1,1.41,1.41ZM193.84,526.44V318.06H376.17V526.44Zm212.38,24.63a1.41,1.41,0,0,1-1.41,1.41h-13.2a1.42,1.42,0,0,1-1.42-1.41v-13.2a1.42,1.42,0,0,1,1.42-1.41h13.2a1.41,1.41,0,0,1,1.41,1.41Zm40.08,0a1.42,1.42,0,0,1-1.42,1.41h-13.2a1.41,1.41,0,0,1-1.41-1.41v-13.2a1.41,1.41,0,0,1,1.41-1.41h13.2a1.42,1.42,0,0,1,1.42,1.41Zm40.07,0a1.42,1.42,0,0,1-1.42,1.41h-13.2a1.41,1.41,0,0,1-1.41-1.41v-13.2a1.41,1.41,0,0,1,1.41-1.41H485a1.42,1.42,0,0,1,1.42,1.41Zm40.07,0a1.41,1.41,0,0,1-1.41,1.41h-13.2a1.42,1.42,0,0,1-1.42-1.41v-13.2a1.42,1.42,0,0,1,1.42-1.41H525a1.41,1.41,0,0,1,1.41,1.41Zm40.07,0a1.41,1.41,0,0,1-1.41,1.41H551.9a1.42,1.42,0,0,1-1.42-1.41v-13.2a1.42,1.42,0,0,1,1.42-1.41h13.2a1.41,1.41,0,0,1,1.41,1.41ZM831,537.87a1.41,1.41,0,0,1,1.42-1.41H845.6a1.41,1.41,0,0,1,1.42,1.41v13.2a1.41,1.41,0,0,1-1.42,1.41H832.41a1.41,1.41,0,0,1-1.42-1.41Zm-40.07,0a1.41,1.41,0,0,1,1.41-1.41h13.2a1.42,1.42,0,0,1,1.42,1.41v13.2a1.42,1.42,0,0,1-1.42,1.41h-13.2a1.41,1.41,0,0,1-1.41-1.41Zm-40.07,0a1.41,1.41,0,0,1,1.41-1.41h13.2a1.42,1.42,0,0,1,1.42,1.41v13.2a1.42,1.42,0,0,1-1.42,1.41h-13.2a1.41,1.41,0,0,1-1.41-1.41Zm-40.08,0a1.42,1.42,0,0,1,1.42-1.41h13.2a1.41,1.41,0,0,1,1.41,1.41v13.2a1.41,1.41,0,0,1-1.41,1.41h-13.2a1.42,1.42,0,0,1-1.42-1.41Zm-40.07,0a1.41,1.41,0,0,1,1.42-1.41h13.2a1.41,1.41,0,0,1,1.41,1.41v13.2a1.41,1.41,0,0,1-1.41,1.41h-13.2a1.41,1.41,0,0,1-1.42-1.41Zm-40.07,0a1.41,1.41,0,0,1,1.41-1.41h13.2a1.42,1.42,0,0,1,1.42,1.41v13.2a1.42,1.42,0,0,1-1.42,1.41H632a1.41,1.41,0,0,1-1.41-1.41Zm-25.46-1.41a1.42,1.42,0,0,1,1.42,1.41v13.2a1.42,1.42,0,0,1-1.42,1.41H592a1.41,1.41,0,0,1-1.41-1.41v-13.2a1.41,1.41,0,0,1,1.41-1.41Zm-24.63-10H398.21V318.06H580.54Z" transform="translate(-1.49 -284)" />
	<path class="cls-1" d="M482.51,587.89q.87,4.89,1.3,6.75a23.82,23.82,0,0,1,.43,5,38.31,38.31,0,0,1-4.17,17.65A24.73,24.73,0,0,1,468.73,629a56.81,56.81,0,0,0-14.06-13.35,84.2,84.2,0,0,0-18.23-9.19,114,114,0,0,0-20.53-5.31,128.93,128.93,0,0,0-20.67-1.72A106.32,106.32,0,0,0,376.43,601a78.89,78.89,0,0,0-15.5,4.3A30.39,30.39,0,0,0,350.31,612a12.85,12.85,0,0,0-3.88,9.19q.87,6.31,7.75,12.77a105.69,105.69,0,0,0,16.94,12.64q10,6.17,22.25,12.2t24,11.48q14.64,6.88,25.27,12.78A75.68,75.68,0,0,1,460.12,696a46.93,46.93,0,0,1,10.34,15.94q3.44,8.9,3.44,21.53A76.29,76.29,0,0,1,469,760.87a63.84,63.84,0,0,1-14.21,22.25,65.58,65.58,0,0,1-22.54,14.78,78.62,78.62,0,0,1-29.57,5.31A137.51,137.51,0,0,1,368,798.33,165.14,165.14,0,0,1,333.08,785a105,105,0,0,1-27-19.52q-10.77-11-10.77-23.4,0-5.73,3.3-14.64t11.92-18.66q.85,8.61,9.33,20.38T345.28,751a123.54,123.54,0,0,0,32.59,13.35,130.74,130.74,0,0,0,31.43,4.17q16.08,0,26.13-4t15.79-9.62a33.52,33.52,0,0,0,8-11.34c.31-.78.59-1.52.85-2.24a17.58,17.58,0,0,0-3.48-17.9l-.1-.1A62.31,62.31,0,0,0,443,712.92a220.64,220.64,0,0,0-19.67-10.19q-11.19-5.16-23.25-10.33-18.09-8-31.15-15.08A119.15,119.15,0,0,1,347.44,663a48.56,48.56,0,0,1-12.35-15.36,41.84,41.84,0,0,1-3.87-18.37q0-16.08,9.76-30.44T369.11,577a82.18,82.18,0,0,1,19.67-5.75,127.22,127.22,0,0,1,20.52-1.72,134,134,0,0,1,37,5.17A275.19,275.19,0,0,1,482.51,587.89Z" transform="translate(-1.49 -284)" />
	<path class="cls-1" d="M573.81,775.08a22.24,22.24,0,0,1-7.32-11.48,46.06,46.06,0,0,1-1.87-11.78,32.72,32.72,0,0,1,1.44-10.33q-1.15,0-5.17,4.58T552.13,757q-4.74,6.3-9.33,12.3t-6.89,8.87a45.17,45.17,0,0,1-7,6.3,14,14,0,0,1-5.31,2.57,32.07,32.07,0,0,1-9.62-1.58,39.2,39.2,0,0,1-9.48-4.49,33.32,33.32,0,0,1-7.75-6.93,22,22,0,0,1-4.45-9.25c0-5.35.15-9.76.43-13.2a75.76,75.76,0,0,1,1.87-11.2,223.44,223.44,0,0,1,7.61-24.69,266.93,266.93,0,0,1,11.62-27.13,190.61,190.61,0,0,1,14.79-25A75.85,75.85,0,0,1,546,645.31a50.94,50.94,0,0,1,6,.43,39.5,39.5,0,0,1,7,1.58,55.49,55.49,0,0,1,6.89,2.73,17.48,17.48,0,0,1,5.6,4.16q-2.58,2.88-13.06,19.24t-23.4,47.08q-1.44,3.16-3.45,9.19t-4,12.63q-2,6.61-3.31,12.92A53.12,53.12,0,0,0,523,765.32a6.55,6.55,0,0,0,.72,3.44,9.89,9.89,0,0,0,1.29,1.73q4.31-1.72,10.91-9.48t18.38-23.83q2.87-4,6.74-9.18c2.59-3.45,5.21-7.13,7.9-11.06s5.21-8,7.6-12.2a82.22,82.22,0,0,0,5.89-12.63c.76-2.3,1.77-5,3-8.18A100.71,100.71,0,0,1,590,674a113.35,113.35,0,0,1,6.31-10.48,58.78,58.78,0,0,1,8.47-9.9,41.44,41.44,0,0,1,8,.86,67.37,67.37,0,0,1,8.18,2.15,40.63,40.63,0,0,1,6.75,2.87,15.13,15.13,0,0,1,4.31,3.31q-5.18,12.63-11.49,25t-11.77,24.26a206,206,0,0,0-9.18,23.69,75.72,75.72,0,0,0-3.74,23,47.37,47.37,0,0,0,1,10.48,55.35,55.35,0,0,0,2.15,7.47,53.33,53.33,0,0,0,2.15,5,8,8,0,0,1,1,3.45c0,.19-.19.47-.58.86a.83.83,0,0,1-.57.29,20.4,20.4,0,0,1-5.17-.87,61.49,61.49,0,0,1-7-2.44c-2.58-1.05-5.17-2.24-7.75-3.58A76.17,76.17,0,0,1,573.81,775.08Z" transform="translate(-1.49 -284)" />
	<path class="cls-1" d="M630.65,775.65q1.43-8.32,5-22t8.47-29q4.88-15.35,10.34-30.86T665.1,666a132,132,0,0,1,6.6-13.92,39.69,39.69,0,0,1,6.32-8.47,48,48,0,0,1,8.32,2,64,64,0,0,1,8.33,3.45,61.63,61.63,0,0,1,7.18,4.16,24.92,24.92,0,0,1,4.88,4.16,105.29,105.29,0,0,0-13.64,21,228.47,228.47,0,0,0-11.91,30.14q15.5-13.77,27.41-26.41a213.8,213.8,0,0,0,22.25-28.13q1.73-1.44,6-1.44a23.56,23.56,0,0,1,7.75,1.29,9.45,9.45,0,0,1,5.17,3.59,77.19,77.19,0,0,0-5.17,27.27q0,12.65,3.73,19-.29,1.73-3.87,6.61a81,81,0,0,1-7.89,9.18,45.92,45.92,0,0,1-13.79-11A47.32,47.32,0,0,1,713.9,693a197.85,197.85,0,0,0-23,18.52,98.78,98.78,0,0,0-16.22,20.09A122.07,122.07,0,0,0,663.23,757a342.18,342.18,0,0,0-9,34.17,22.26,22.26,0,0,1-6.17-1.87,52.05,52.05,0,0,1-7.18-3.88,48.08,48.08,0,0,1-6.46-4.88A13.06,13.06,0,0,1,630.65,775.65Z" transform="translate(-1.49 -284)" />
	<path class="cls-1" d="M771.32,853.67c-1.35,5.78-9.79,5.78-10.88-.06l0-.16c-.76-5.16-453.95-1.51-459.69-4.76,1.53-9.75,453.19-27.46,455.1-37.39s4.35-21.26,7.32-34,6.7-27.51,11.2-44.42,10.19-37.41,17.08-61.49H776.49a48.47,48.47,0,0,0-10.62,1.16,8.39,8.39,0,0,1-1.87-3.16,11.13,11.13,0,0,1-.71-3.74,86.8,86.8,0,0,1,11.76-3q8.91-1.86,19.53-3.3a252,252,0,0,1,15.79-39.19,159.42,159.42,0,0,1,19.23-29.71q10.33-12.35,21.82-19a46.24,46.24,0,0,1,23.26-6.6,48.47,48.47,0,0,1,6.6.43,38.11,38.11,0,0,0,4.88.43,25.48,25.48,0,0,1,6.89-3.59,22.3,22.3,0,0,1,7.46-1.58q3.45,0,8.9,3.73a79.13,79.13,0,0,0-4.88,10.9,136.54,136.54,0,0,0-4.3,13.47Q893,609.93,885,616.24c-2.11,0-3.25-2.77-3.44-8.31a60.46,60.46,0,0,0-1.73-11.75,24.57,24.57,0,0,1-1.58-4.58,25.89,25.89,0,0,1-.43-5.16,36.86,36.86,0,0,1,.29-4.16c.19-1.62.58-4.34,1.15-8.16q-4.89,0-10.76,6t-12.35,17a245.83,245.83,0,0,0-13.06,26.09q-6.61,15.12-12.64,33.36h24.12q1.44,1.34,2.44,6a63.41,63.41,0,0,1,1.29,9.77H826.73q-10.9,32.3-20.38,61.74t-16.94,54.3q-7.47,24.85-12.78,44.44Q773.42,844.62,771.32,853.67Z" transform="translate(-1.49 -284)" />
	<path class="cls-1" d="M953.05,662.54q-1.15,17.81-6.32,30.57A66.62,66.62,0,0,1,932,715.51a107.3,107.3,0,0,1-23.4,17.37A256.64,256.64,0,0,1,876.4,747.8c0,1.15,0,2.35-.15,3.59s-.14,2.54-.14,3.88a55.19,55.19,0,0,0,.57,7.75,30.84,30.84,0,0,0,2,7.47,14.32,14.32,0,0,0,4,5.59,10,10,0,0,0,6.61,2.16,35.94,35.94,0,0,0,15.21-3.45,79.7,79.7,0,0,0,14.21-8.47,112.61,112.61,0,0,0,12.63-10.91q5.89-5.88,10.48-10.76a58.93,58.93,0,0,1,4.88,4.88,138.31,138.31,0,0,1-28.27,28.56q-15.36,11.34-29.14,14.5-19.82-2.3-30.87-14.5T847.4,748.67a91.64,91.64,0,0,1,3.3-24,117.61,117.61,0,0,1,9.19-23.54,135.58,135.58,0,0,1,13.78-21.39,113.83,113.83,0,0,1,16.94-17.51,82.08,82.08,0,0,1,18.66-11.77,46.43,46.43,0,0,1,19.09-4.3Q941.56,647.89,953.05,662.54ZM933.24,672a42.55,42.55,0,0,0-16.08,6.32,67.1,67.1,0,0,0-15.64,13.78,109.32,109.32,0,0,0-13.35,20.1,115.7,115.7,0,0,0-9.48,24.69q23-11.49,38.19-28.28T933.24,672Z" transform="translate(-1.49 -284)" />
	<path class="cls-1" d="M959.36,775.65q1.44-8.32,5-22t8.47-29q4.88-15.35,10.33-30.86T993.82,666a130,130,0,0,1,6.6-13.92,39.69,39.69,0,0,1,6.32-8.47,48.21,48.21,0,0,1,8.32,2,64.6,64.6,0,0,1,8.33,3.45,62.29,62.29,0,0,1,7.17,4.16,24.62,24.62,0,0,1,4.88,4.16,105.7,105.7,0,0,0-13.63,21,227,227,0,0,0-11.92,30.14q15.51-13.77,27.42-26.41a213.8,213.8,0,0,0,22.25-28.13q1.73-1.44,6-1.44a23.56,23.56,0,0,1,7.75,1.29,9.49,9.49,0,0,1,5.17,3.59,77.19,77.19,0,0,0-5.17,27.27q0,12.65,3.73,19-.28,1.73-3.87,6.61a81,81,0,0,1-7.9,9.18,45.88,45.88,0,0,1-13.78-11,47,47,0,0,1-8.9-15.36,198.88,198.88,0,0,0-23,18.52,99.46,99.46,0,0,0-16.22,20.09A122.06,122.06,0,0,0,992,757a344.71,344.71,0,0,0-9.05,34.17,22.26,22.26,0,0,1-6.17-1.87,52.54,52.54,0,0,1-7.17-3.88,48.08,48.08,0,0,1-6.46-4.88A13.21,13.21,0,0,1,959.36,775.65Z" transform="translate(-1.49 -284)" />
</svg>
